<?xml version="1.0" encoding="utf-8"?>
<!-- Generator: Adobe Illustrator 15.1.0, SVG Export Plug-In . SVG Version: 6.00 Build 0)  -->
<!DOCTYPE svg PUBLIC "-//W3C//DTD SVG 1.1//EN" "http://www.w3.org/Graphics/SVG/1.1/DTD/svg11.dtd">
<svg version="1.1" xmlns="http://www.w3.org/2000/svg" xmlns:xlink="http://www.w3.org/1999/xlink" x="0px" y="0px" width="440px"
	 height="156px" viewBox="-113.399 183.586 440 156" enable-background="new -113.399 183.586 440 156" xml:space="preserve">
<g id="Layer_2">
</g>
<g id="Layer_3">
	<g>
		<path fill="#DBDBDB" d="M-40.155,193.868c1.433,0,2.596,1.162,2.596,2.597v18.696c0,1.434-1.163,2.597-2.596,2.597h-11.142
			l-12.135,7.708v-7.708h-6.257c-1.434,0-2.596-1.163-2.596-2.597v-18.696c0-1.435,1.162-2.597,2.596-2.597H-40.155
			 M-40.155,191.868h-29.534c-2.534,0-4.596,2.062-4.596,4.597v18.696c0,2.534,2.062,4.597,4.596,4.597h4.257v5.708
			c0,0.729,0.397,1.401,1.037,1.753c0.301,0.165,0.632,0.247,0.963,0.247c0.373,0,0.746-0.104,1.072-0.312l11.644-7.396h10.561
			c2.534,0,4.596-2.062,4.596-4.597v-18.696C-35.559,193.931-37.621,191.868-40.155,191.868L-40.155,191.868z"/>
	</g>
	<g>
		<path fill="#DBDBDB" d="M5.073,247.75c1.867,0,3.382,1.514,3.382,3.383v24.359c0,1.868-1.515,3.383-3.382,3.383H-9.444
			l-15.811,10.043v-10.043h-8.152c-1.869,0-3.382-1.515-3.382-3.383v-24.359c0-1.869,1.514-3.383,3.382-3.383H5.073 M5.073,245.75
			h-38.48c-2.968,0-5.382,2.415-5.382,5.383v24.359c0,2.968,2.415,5.383,5.382,5.383h6.152v8.043c0,0.729,0.397,1.401,1.037,1.753
			c0.3,0.165,0.632,0.247,0.963,0.247c0.373,0,0.746-0.104,1.072-0.312l15.32-9.731H5.073c2.968,0,5.382-2.415,5.382-5.383v-24.359
			C10.455,248.165,8.041,245.75,5.073,245.75L5.073,245.75z"/>
	</g>
	<g>
		<path fill="#DBDBDB" d="M150.365,266.333c1.865,0,3.381,1.514,3.381,3.383v24.359c0,1.869-1.516,3.383-3.381,3.383h-14.518
			l-15.811,10.043v-10.043h-8.152c-1.869,0-3.383-1.514-3.383-3.383v-24.359c0-1.869,1.514-3.383,3.383-3.383H150.365
			 M150.365,264.333h-38.48c-2.968,0-5.383,2.415-5.383,5.383v24.359c0,2.968,2.415,5.383,5.383,5.383h6.152v8.043
			c0,0.729,0.397,1.401,1.037,1.753c0.3,0.165,0.632,0.247,0.963,0.247c0.373,0,0.746-0.104,1.072-0.312l15.319-9.731h13.937
			c2.967,0,5.381-2.415,5.381-5.383v-24.359C155.746,266.748,153.332,264.333,150.365,264.333L150.365,264.333z"/>
	</g>
	<g>
		<path fill="#DBDBDB" d="M98.949,289.918c1.867,0,3.383,1.514,3.383,3.383v24.359c0,1.868-1.516,3.383-3.383,3.383H84.433
			l-15.811,10.043v-10.043H60.47c-1.869,0-3.382-1.515-3.382-3.383v-24.359c0-1.869,1.514-3.383,3.382-3.383H98.949 M98.949,287.918
			H60.47c-2.968,0-5.382,2.415-5.382,5.383v24.359c0,2.968,2.415,5.383,5.382,5.383h6.153v8.043c0,0.729,0.397,1.401,1.037,1.753
			c0.301,0.165,0.632,0.247,0.963,0.247c0.373,0,0.746-0.104,1.072-0.312l15.32-9.731h13.935c2.968,0,5.383-2.415,5.383-5.383
			v-24.359C104.332,290.333,101.917,287.918,98.949,287.918L98.949,287.918z"/>
	</g>
	<g>
		<path fill="#DBDBDB" d="M46.909,172c2.964,0,5.368,2.403,5.368,5.368v38.659c0,2.965-2.404,5.368-5.368,5.368H23.871
			l-25.092,15.938v-15.938H-14.16c-2.965,0-5.368-2.403-5.368-5.368v-38.659c0-2.965,2.403-5.368,5.368-5.368H46.909 M46.909,170
			H-14.16c-4.063,0-7.368,3.306-7.368,7.368v38.659c0,4.062,3.305,7.368,7.368,7.368h10.938v13.938c0,0.729,0.397,1.401,1.037,1.753
			c0.3,0.165,0.632,0.247,0.963,0.247c0.373,0,0.746-0.104,1.072-0.312l24.602-15.627h22.457c4.063,0,7.368-3.306,7.368-7.368
			v-38.659C54.277,173.306,50.972,170,46.909,170L46.909,170z"/>
	</g>
	<g>
		<path fill="#DBDBDB" d="M271.988,142.646c3.482,0,6.303,2.822,6.303,6.303v45.389c0,3.48-2.82,6.303-6.303,6.303h-15.189v18.713
			l-29.461-18.713h-27.047c-3.48,0-6.303-2.822-6.303-6.303v-45.389c0-3.48,2.822-6.303,6.303-6.303H271.988 M271.988,140.646
			h-71.697c-4.578,0-8.303,3.725-8.303,8.303v45.389c0,4.578,3.725,8.303,8.303,8.303h26.466l28.97,18.401
			c0.326,0.207,0.699,0.312,1.072,0.312c0.331,0,0.663-0.082,0.963-0.247c0.64-0.352,1.037-1.023,1.037-1.753v-16.713h13.189
			c4.578,0,8.303-3.725,8.303-8.303v-45.389C280.291,144.371,276.566,140.646,271.988,140.646L271.988,140.646z"/>
	</g>
	<g>
		<path fill="#DBDBDB" d="M81.811,232.666c2.964,0,5.368,2.404,5.368,5.369v38.658c0,2.965-2.404,5.369-5.368,5.369H58.773
			L33.681,298v-15.938H20.743c-2.965,0-5.368-2.404-5.368-5.369v-38.658c0-2.965,2.403-5.369,5.368-5.369H81.811 M81.811,230.666
			H20.743c-4.063,0-7.368,3.306-7.368,7.369v38.658c0,4.063,3.305,7.369,7.368,7.369h10.938V298c0,0.729,0.397,1.401,1.037,1.753
			c0.301,0.165,0.632,0.247,0.963,0.247c0.373,0,0.746-0.104,1.072-0.312l24.602-15.626h22.457c4.063,0,7.368-3.306,7.368-7.369
			v-38.658C89.179,233.972,85.874,230.666,81.811,230.666L81.811,230.666z"/>
	</g>
	<g>
		<path fill="#DBDBDB" d="M229.771,224.667c2.965,0,5.367,2.403,5.367,5.368v38.659c0,2.965-2.402,5.368-5.367,5.368h-12.938v15.938
			l-25.094-15.938h-23.037c-2.965,0-5.369-2.403-5.369-5.368v-38.659c0-2.965,2.404-5.368,5.369-5.368H229.771 M229.771,222.667
			h-61.068c-4.063,0-7.369,3.306-7.369,7.368v38.659c0,4.062,3.306,7.368,7.369,7.368h22.456l24.603,15.627
			c0.326,0.207,0.699,0.312,1.072,0.312c0.331,0,0.663-0.082,0.963-0.247c0.64-0.352,1.037-1.023,1.037-1.753v-13.938h10.938
			c4.062,0,7.367-3.306,7.367-7.368v-38.659C237.139,225.973,233.834,222.667,229.771,222.667L229.771,222.667z"/>
	</g>
	<g>
		<path fill="#DBDBDB" d="M104.746,218.667l15.811,10.043h14.516c1.867,0,3.383,1.515,3.383,3.383v24.359
			c0,1.869-1.516,3.383-3.383,3.383H96.594c-1.869,0-3.383-1.514-3.383-3.383v-24.359c0-1.868,1.514-3.383,3.383-3.383h8.152
			V218.667 M104.746,216.667c-0.331,0-0.662,0.082-0.963,0.247c-0.64,0.352-1.037,1.023-1.037,1.753v8.043h-6.152
			c-2.968,0-5.383,2.415-5.383,5.383v24.359c0,2.968,2.416,5.383,5.383,5.383h38.479c2.968,0,5.383-2.415,5.383-5.383v-24.359
			c0-2.968-2.415-5.383-5.383-5.383h-13.935l-15.319-9.731C105.492,216.771,105.119,216.667,104.746,216.667L104.746,216.667z"/>
	</g>
	<g>
		<path fill="#DBDBDB" d="M176.496,131.25c4.697,0,8.504,3.808,8.504,8.504v61.242c0,4.697-3.807,8.504-8.504,8.504H156v25.25
			l-39.75-25.25H79.753c-4.696,0-8.504-3.807-8.504-8.504v-61.242c0-4.696,3.808-8.504,8.504-8.504H176.496 M176.496,129.25H79.753
			c-5.792,0-10.504,4.712-10.504,10.504v61.242c0,5.792,4.712,10.504,10.504,10.504h35.916l39.259,24.938
			c0.326,0.207,0.699,0.312,1.072,0.312c0.331,0,0.662-0.082,0.963-0.247c0.64-0.352,1.037-1.023,1.037-1.753V211.5h18.496
			c5.792,0,10.504-4.712,10.504-10.504v-61.242C187,133.962,182.288,129.25,176.496,129.25L176.496,129.25z"/>
	</g>
</g>
</svg>
