<?xml version="1.0" encoding="UTF-8" standalone="no"?>
<svg width="110px" height="34px" viewBox="0 0 110 34" version="1.1" xmlns="http://www.w3.org/2000/svg" xmlns:xlink="http://www.w3.org/1999/xlink" xmlns:sketch="http://www.bohemiancoding.com/sketch/ns">
    <!-- Generator: Sketch 3.3.3 (12081) - http://www.bohemiancoding.com/sketch -->
    <title>debate-summary-horizontal-white-navbar</title>
    <desc>Created with Sketch.</desc>
    <defs>
        <linearGradient x1="50.026469%" y1="97.106034%" x2="50.026469%" y2="614.715876%" id="linearGradient-1">
            <stop stop-color="#5B5B5B" offset="0%"></stop>
            <stop stop-color="#4F3635" offset="100%"></stop>
        </linearGradient>
        <linearGradient x1="50.013231%" y1="7.64328247%" x2="50.013231%" y2="91.4725879%" id="linearGradient-2">
            <stop stop-color="#969696" offset="0%"></stop>
            <stop stop-color="#515151" offset="100%"></stop>
        </linearGradient>
        <linearGradient x1="49.9735029%" y1="-77.3056494%" x2="49.9735029%" y2="140.038629%" id="linearGradient-3">
            <stop stop-color="#5B5B5B" offset="0%"></stop>
            <stop stop-color="#434343" offset="100%"></stop>
        </linearGradient>
        <linearGradient x1="90.3766601%" y1="13.2643235%" x2="-0.860004354%" y2="56.4275397%" id="linearGradient-4">
            <stop stop-color="#B3B3B3" offset="0%"></stop>
            <stop stop-color="#1A1A1A" offset="100%"></stop>
        </linearGradient>
    </defs>
    <g id="Page-1" stroke="none" stroke-width="1" fill="none" fill-rule="evenodd" sketch:type="MSPage">
        <g id="debate-summary-horizontal-white-navbar" sketch:type="MSArtboardGroup">
            <g id="Signpost-Greyscale" sketch:type="MSLayerGroup" transform="translate(0.000000, 0.467725)">
                <path d="M49.4406772,7.05257143 C49.9645291,6.49777778 50.4013122,5.84008466 50.2746667,5.09028571 C50.1480212,4.33760847 49.527746,3.60148148 48.8520635,3.24888889 L44.3870899,0.944084656 C43.8373333,0.658412698 43.088254,0.597248677 42.4946032,0.791534392 L27.0935026,6.02285714 L27.0935026,2.17096296 C27.0935026,1.29667725 26.7020529,0.215873016 24.7563175,0.215873016 C22.7012063,0.215873016 22.383873,1.19809524 22.383873,2.02488889 L22.383873,7.59585185 L21.0497778,8.03551323 L13.7755767,10.4302646 C13.322963,10.5806561 12.9279153,10.8519365 12.6314497,11.2189206 L10.8173968,13.5395556 C10.4475344,13.994328 10.1726561,14.5915767 10.1726561,15.1765926 C10.1726561,15.5205503 10.3086561,15.7860741 10.3086561,15.7860741 L6.54383069,15.7860741 C5.97536508,15.7860741 5.42273016,15.9825185 4.98954497,16.3430265 L0.944804233,19.6797037 C0.377777778,20.1452698 0.141756614,20.6129947 0.141756614,21.3462434 C0.141756614,22.0794921 0.376338624,22.5795979 0.941925926,23.0458836 L5.01688889,26.3559365 C5.45511111,26.7207619 6.01062434,26.9208042 6.5805291,26.9208042 L22.4579894,26.9208042 L22.4579894,29.9552593 L27.167619,33.151619 L27.167619,21.6959577 L35.0390688,22.7861164 C35.5643598,22.8760635 36.0738201,22.8033862 36.522836,22.589672 C36.5523386,22.5745608 37.3733757,22.1334603 38.005164,21.4800847 C38.2670899,21.2073651 38.5139048,20.9166561 38.5390899,20.6273862 C38.5693122,20.2834286 38.5412487,19.9711323 38.3059471,19.5616931 C37.7641058,18.6226455 36.8128254,17.6929524 36.7732487,17.6555344 C36.4882963,17.3979259 36.1407407,17.2086772 35.7723175,17.1136931 L29.4968889,15.4435556 L43.5171217,12.7213968 C43.9992381,12.6199365 44.4360212,12.3745608 44.7792593,12.0111746 L49.4406772,7.05257143 L49.4406772,7.05257143 Z" id="Shape" fill="#FFFFFF" sketch:type="MSShapeGroup"></path>
                <path d="M6.52080423,25.5363386 C6.39703704,25.5363386 6.27398942,25.4917249 6.17612698,25.4118519 L1.73346032,21.7484868 C1.60897354,21.6441481 1.53701587,21.4937566 1.53701587,21.3296931 C1.53701587,21.1670688 1.60969312,21.0145185 1.73346032,20.9130582 L6.17900529,17.248254 C6.27326984,17.1691005 6.39415873,17.1259259 6.52080423,17.1259259 L22.3939471,17.1259259 L22.3939471,25.5363386 L6.52080423,25.5363386 L6.52080423,25.5363386 Z" id="Shape" fill="#B6B6B6" sketch:type="MSShapeGroup"></path>
                <path d="M22.3198307,17.2000423 L22.3198307,25.4622222 L6.52080423,25.4622222 C6.4135873,25.4622222 6.3085291,25.4240847 6.22433862,25.3550053 L1.78095238,21.6923598 C1.67373545,21.6031323 1.6104127,21.4700106 1.6104127,21.3296931 C1.6104127,21.1900952 1.67301587,21.0584127 1.78095238,20.9699048 L6.22721693,17.3036614 C6.30708995,17.2360212 6.41214815,17.1986032 6.52080423,17.1986032 L22.3198307,17.2000423 L22.3198307,17.2000423 Z M22.4680635,17.0525291 L6.52080423,17.0525291 C6.37760847,17.0525291 6.23944974,17.1007407 6.1322328,17.1899683 L1.68740741,20.8554921 C1.54565079,20.9720635 1.46289947,21.1440423 1.46289947,21.3289735 C1.46289947,21.5153439 1.54493122,21.6866032 1.68740741,21.8038942 L6.13007407,25.4672593 C6.24088889,25.5593651 6.37904762,25.6082963 6.52080423,25.6082963 L22.4680635,25.6082963 L22.4680635,17.0525291 L22.4680635,17.0525291 Z" id="Shape" fill="#3D3D3D" sketch:type="MSShapeGroup"></path>
                <path d="M25.6975238,0.697989418 L25.488127,0.651936508 L25.488127,5.48821164 C25.488127,5.65875132 25.4974815,5.82785185 25.5780741,6.00702646 C25.6536296,6.17540741 25.7335026,6.3517037 25.7335026,6.51144974 L25.7335026,6.79352381 L26.8474074,6.41790476 L26.8474074,1.74929101 C26.8474074,1.39022222 26.6480847,0.916021164 25.6975238,0.697989418 L25.6975238,0.697989418 Z" id="Shape" fill="url(#linearGradient-1)" sketch:type="MSShapeGroup"></path>
                <path d="M12.4055026,15.9925926 L11.6736931,15.4493122 C11.5564021,15.3687196 11.4786878,15.2399153 11.4592593,15.1017566 C11.4398307,14.9592804 11.4794074,14.8153651 11.5700741,14.7038307 L13.8964656,11.8471111 C13.9576296,11.7722751 14.0389418,11.7154286 14.1332063,11.6844868 L22.5659259,8.9328254 L22.5659259,15.2104127 L18.6622222,15.9925926 L12.4055026,15.9925926 L12.4055026,15.9925926 Z" id="Shape" fill="#ABABAB" sketch:type="MSShapeGroup"></path>
                <path d="M22.4918095,9.03428571 L22.4918095,15.1499683 L18.6701376,15.9177566 L12.4522751,15.9177566 L11.714709,15.3888677 C11.6146878,15.3176296 11.5492063,15.2096931 11.5319365,15.0888042 C11.5139471,14.9679153 11.5484868,14.8441481 11.6276402,14.7484444 L13.9547513,11.893164 C14.0065608,11.8276825 14.0763598,11.7809101 14.1569524,11.7542857 L22.4918095,9.03428571 L22.4918095,9.03428571 Z M22.6393228,8.83208466 L14.1108995,11.6154074 C14.0036825,11.6513862 13.9101376,11.7161481 13.8403386,11.8017778 L11.5132275,14.6563386 C11.4088889,14.7829841 11.3642751,14.9484868 11.386582,15.1103915 C11.4088889,15.2708571 11.498836,15.4154921 11.6312381,15.5083175 L12.4055026,16.0652698 L18.6708571,16.0652698 L22.6400423,15.2708571 L22.6393228,8.83208466 L22.6393228,8.83208466 Z" id="Shape" fill="#3D3D3D" sketch:type="MSShapeGroup"></path>
                <path d="M26.1810794,7.73616931 L42.8759788,2.4077037 L43.0407619,2.38251852 C43.1299894,2.38251852 43.2170582,2.40266667 43.2918942,2.44224339 L47.9856931,4.88592593 C48.1339259,4.9607619 48.2389841,5.10683598 48.2670476,5.27089947 C48.2951111,5.43496296 48.2433016,5.60622222 48.1281693,5.72855026 L43.1782011,10.9713862 C43.1048042,11.0491005 43.0069418,11.1037884 42.9033228,11.1275344 L26.1810794,14.7246984 L26.1810794,7.73616931 L26.1810794,7.73616931 Z" id="Shape" fill="#A5A5A5" sketch:type="MSShapeGroup"></path>
                <path d="M43.0414815,2.45591534 C43.1191958,2.45591534 43.1947513,2.47318519 43.2587937,2.50700529 L47.9533122,4.94996825 C48.0806772,5.01616931 48.1706243,5.13993651 48.1943704,5.2824127 C48.218836,5.42344974 48.1749418,5.57240212 48.0749206,5.67817989 L43.1249524,10.9195767 C43.0616296,10.9864974 42.9774392,11.034709 42.8874921,11.0548571 L26.2544762,14.6325926 L26.2544762,7.79013757 L42.8975661,2.47750265 L43.0414815,2.45591534 L43.0414815,2.45591534 Z M43.0414815,2.30912169 L42.853672,2.33574603 L26.106963,7.68292063 L26.106963,14.8153651 L42.919873,11.1994921 C43.037164,11.1728677 43.1486984,11.109545 43.2321693,11.021037 L48.1821376,5.77964021 C48.3138201,5.64148148 48.3728254,5.44575661 48.3404444,5.25722751 C48.3087831,5.07013757 48.1893333,4.90751323 48.021672,4.82116402 L43.3285926,2.37748148 C43.2408042,2.33214815 43.1415026,2.30912169 43.0414815,2.30912169 L43.0414815,2.30912169 Z" id="Shape" fill="#3D3D3D" sketch:type="MSShapeGroup"></path>
                <path d="M25.488127,2.82433862 L25.488127,0.68431746 L25.3622011,0.666328042 C25.1053122,0.627470899 24.8664127,0.620994709 24.7109841,0.620994709 C24.376381,0.620994709 23.7453122,0.657693122 23.2819048,0.90594709 C22.9473016,1.10095238 22.7688466,1.38950265 22.7688466,1.74281481 L22.7688466,16.0609524 L23.4114286,16.0609524 L23.4114286,26.693418 L22.7688466,26.693418 L22.7688466,29.653037 L25.488127,31.557037 L25.4874074,28.658582 C25.4787725,28.480127 25.432,28.2397884 25.3787513,27.9605926 C25.2981587,27.5511534 25.1988571,27.0409735 25.1988571,26.5840423 L25.1988571,4.9053545 C25.1988571,4.44842328 25.2981587,3.93824339 25.3780317,3.52952381 C25.432,3.25032804 25.4794921,3.01070899 25.488127,2.82433862 L25.488127,2.82433862 Z" id="Shape" fill="url(#linearGradient-2)" sketch:type="MSShapeGroup"></path>
                <path d="M35.5542857,21.8017354 L35.4499471,21.7909418 L26.8884233,20.381291 L26.8869841,15.9638095 L35.5650794,18.2016931 C35.6478307,18.2232804 35.7233862,18.2628571 35.7773545,18.3110688 C35.8226878,18.3585608 37.189164,19.8646349 37.4575661,20.2222646 C37.4885079,20.2632804 37.5460741,20.3373968 37.530963,20.432381 C37.5208889,20.5086561 37.4510899,20.5655026 37.4143915,20.5957249 C37.1920423,20.770582 36.3501376,21.352 35.9903492,21.600254 L35.8162116,21.7204233 C35.6838095,21.7866243 35.6147302,21.8017354 35.5542857,21.8017354 L35.5542857,21.8017354 Z" id="Shape" fill="#7A7A7A" sketch:type="MSShapeGroup"></path>
                <path d="M26.9596614,16.0602328 L35.5456508,18.2743704 C35.6176085,18.2923598 35.6816508,18.3247407 35.7197884,18.3585608 C35.7687196,18.4103704 37.1308783,19.9114074 37.3978413,20.2675979 C37.4331005,20.3136508 37.4669206,20.3640212 37.4568466,20.4273439 C37.4503704,20.4719577 37.394963,20.5165714 37.3668995,20.5388783 C37.1474286,20.7115767 36.3062434,21.2929947 35.9471746,21.5405291 L35.7910265,21.6491852 C35.6550265,21.717545 35.5960212,21.727619 35.5535661,21.727619 L35.4621799,21.7161058 L26.960381,20.3179683 L26.9596614,16.0602328 L26.9596614,16.0602328 Z M26.8121481,15.8702646 L26.8135873,20.4431746 L35.4377143,21.863619 L35.5535661,21.8765714 C35.632,21.8765714 35.7154709,21.8557037 35.8601058,21.7808677 C35.8896085,21.7592804 37.1740529,20.8799577 37.4582857,20.6554497 C37.5007407,20.6216296 37.5892487,20.5503915 37.6029206,20.4467725 C37.6223492,20.3230053 37.549672,20.2258624 37.5158519,20.1812487 C37.2445714,19.8200212 35.8773757,18.3132275 35.8255661,18.2592593 C35.7651217,18.2045714 35.6802116,18.1585185 35.5830688,18.1333333 L26.8121481,15.8702646 L26.8121481,15.8702646 Z" id="Shape" fill="#3D3D3D" sketch:type="MSShapeGroup"></path>
                <path d="M26.6466455,17.6483386 C26.2069841,17.6483386 25.4492698,19.959619 25.4492698,20.8684444 L25.4492698,31.6959153 L26.8071111,32.5507725 L26.8071111,17.6483386 L26.6466455,17.6483386 L26.6466455,17.6483386 Z" id="Shape" fill="url(#linearGradient-3)" sketch:type="MSShapeGroup"></path>
                <path d="M26.8063915,15.6320847 L28.498836,15.2708571 L33.4164233,16.6833862 L26.8063915,18.2599788 L26.8063915,15.6320847 Z" id="Shape" opacity="0.6" fill="url(#linearGradient-4)" sketch:type="MSShapeGroup"></path>
                <path d="M49.4406772,7.05257143 C49.9645291,6.49777778 50.4013122,5.84008466 50.2746667,5.09028571 C50.1480212,4.33760847 49.527746,3.60148148 48.8520635,3.24888889 L44.3870899,0.944084656 C43.8373333,0.658412698 43.088254,0.597248677 42.4946032,0.791534392 L27.0935026,6.02285714 L27.0935026,2.17096296 C27.0935026,1.29667725 26.7020529,0.215873016 24.7563175,0.215873016 C22.7012063,0.215873016 22.383873,1.19809524 22.383873,2.02488889 L22.383873,7.59585185 L21.0497778,8.03551323 L13.7755767,10.4302646 C13.322963,10.5806561 12.9279153,10.8519365 12.6314497,11.2189206 L10.8173968,13.5395556 C10.4475344,13.994328 10.1726561,14.5915767 10.1726561,15.1765926 C10.1726561,15.5205503 10.3086561,15.7860741 10.3086561,15.7860741 L6.54383069,15.7860741 C5.97536508,15.7860741 5.42273016,15.9825185 4.98954497,16.3430265 L0.944804233,19.6797037 C0.377777778,20.1452698 0.141756614,20.6129947 0.141756614,21.3462434 C0.141756614,22.0794921 0.376338624,22.5795979 0.941925926,23.0458836 L5.01688889,26.3559365 C5.45511111,26.7207619 6.01062434,26.9208042 6.5805291,26.9208042 L22.4579894,26.9208042 L22.4579894,29.9552593 L27.167619,33.151619 L27.167619,21.6959577 L35.0390688,22.7861164 C35.5643598,22.8760635 36.0738201,22.8033862 36.522836,22.589672 C36.5523386,22.5745608 37.3733757,22.1334603 38.005164,21.4800847 C38.2670899,21.2073651 38.5139048,20.9166561 38.5390899,20.6273862 C38.5693122,20.2834286 38.5412487,19.9711323 38.3059471,19.5616931 C37.7641058,18.6226455 36.8128254,17.6929524 36.7732487,17.6555344 C36.4882963,17.3979259 36.1407407,17.2086772 35.7723175,17.1136931 L29.4968889,15.4435556 L43.5171217,12.7213968 C43.9992381,12.6199365 44.4360212,12.3745608 44.7792593,12.0111746 L49.4406772,7.05257143 L49.4406772,7.05257143 Z M25.525545,0.688634921 L25.709037,0.735407407 C26.543746,0.951280423 26.7193228,1.42404233 26.7193228,1.7802328 L26.7193228,6.38048677 L25.8004233,6.71149206 L25.8004233,6.51648677 C25.8004233,6.35530159 25.7299048,6.18116402 25.6644233,6.01422222 C25.5924656,5.83648677 25.5262646,5.66954497 25.5262646,5.49756614 L25.525545,0.688634921 L25.525545,0.688634921 Z M11.0195979,13.9835344 L13.1365926,11.3757884 C13.3524656,11.1109841 13.6366984,10.9138201 13.9597884,10.8087619 L22.6393228,7.96787302 L22.6393228,16.066709 L11.1606349,16.066709 C10.8598519,15.8637884 10.6698836,15.5543704 10.6411005,15.3500106 C10.5727407,14.861418 10.7108995,14.3649101 11.0195979,13.9835344 L11.0195979,13.9835344 Z M6.41214815,26.557418 C5.99839153,26.557418 5.59542857,26.4127831 5.28025397,26.1479788 L1.13549206,22.7328677 C0.726772487,22.3939471 0.490751323,21.8945608 0.490751323,21.3642328 C0.490751323,20.831746 0.726772487,20.3316402 1.13693122,19.9941587 L5.28529101,16.5754497 C5.60262434,16.3128042 6.00198942,16.1674497 6.41142857,16.1674497 L23.3279577,16.1674497 L23.3279577,26.5588571 L6.41214815,26.557418 L6.41214815,26.557418 Z M25.3406138,31.4455026 L22.7882751,29.6580741 L22.7882751,26.6991746 L23.429418,26.6991746 L23.429418,16.0652698 L22.7882751,16.0652698 L22.7882751,1.74569312 C22.7882751,1.39310053 22.9645714,1.10311111 23.3006138,0.909544974 C23.7640212,0.661291005 24.3950899,0.624592593 24.7296931,0.624592593 C24.8836825,0.624592593 25.1233016,0.63394709 25.3809101,0.669925926 L25.3413333,0.688634921 L25.3413333,2.82793651 C25.3326984,3.01502646 25.2866455,3.25536508 25.2312381,3.53240212 C25.1520847,3.94184127 25.0520635,4.45202116 25.0520635,4.90967196 L25.0520635,26.5890794 C25.0520635,27.0467302 25.1520847,27.5561905 25.2312381,27.9649101 C25.2866455,28.2433862 25.333418,28.4844444 25.3413333,28.6628995 L25.3406138,31.4455026 L25.3406138,31.4455026 Z M26.7193228,32.4097354 L25.525545,31.5750265 L25.525545,21.0087619 C25.525545,20.1215238 26.1674074,17.8649312 26.5718095,17.8649312 L26.7193228,17.8649312 L26.7193228,32.4097354 L26.7193228,32.4097354 Z M43.3005291,12.0975238 L26.9992381,15.5910688 L27.3604656,15.6846138 L28.2059683,15.5047196 L35.7327407,17.487873 C36.0090582,17.562709 36.2645079,17.7023069 36.4724656,17.8922751 C36.5221164,17.9412063 37.5676614,19.0083386 38.0569735,19.7790053 C38.253418,20.0891429 38.2613333,20.456127 38.2491005,20.5611852 C38.2368677,20.658328 38.1440423,20.9871746 37.8921905,21.2224762 C37.3244444,21.7513651 36.2868148,22.3536508 36.2422011,22.3781164 C35.9997037,22.4925291 35.7420952,22.5515344 35.482328,22.5515344 C35.3794286,22.5515344 35.2758095,22.5414603 35.1714709,22.5234709 L26.815746,21.1138201 L26.8135873,15.6313651 L25.3298201,15.9486984 L25.3298201,7.03386243 L42.6219683,1.42692063 C43.0594709,1.28444444 43.581164,1.32546032 43.9920423,1.53773545 L48.421037,3.84325926 C48.9110688,4.09798942 49.2593439,4.57650794 49.3507302,5.12266667 C49.4435556,5.66594709 49.2722963,6.23081481 48.8937989,6.6330582 L44.2223069,11.5801481 C43.9754921,11.8427937 43.656,12.0226878 43.3005291,12.0975238 L43.3005291,12.0975238 Z" id="Shape" fill="#3D3D3D" sketch:type="MSShapeGroup"></path>
            </g>
            <g id="Debate-+-Summary" sketch:type="MSLayerGroup" transform="translate(50.370370, 5.540741)" font-weight="normal" font-family="Arial Rounded MT Bold" fill="#FFFFFF" font-size="12.5368095" sketch:alignment="right">
                <text id="Debate" sketch:type="MSTextLayer">
                    <tspan x="14.0966809" y="12">Debate</tspan>
                </text>
                <text id="Summary" sketch:type="MSTextLayer">
                    <tspan x="0.145807516" y="20.7220273">Summary</tspan>
                </text>
            </g>
        </g>
    </g>
</svg>